<svg width="234" height="524" viewBox="0 0 234 524" fill="none" xmlns="http://www.w3.org/2000/svg">
<path d="M318.479 483.498C253.606 483.418 196.599 465.05 146.606 430.476C137.839 424.394 139.64 411.869 150.018 407.947C157.22 405.226 164.139 404.946 171.105 409.788C203.423 432.237 240.195 446.803 281.659 452.205C345.964 460.568 404.724 448.604 456.66 415.55C507.507 383.177 538.214 339.76 546.222 286.539C554.894 228.996 539.54 175.774 495.849 129.996C462.963 95.5821 419.603 75.7342 367.904 68.4913C337.671 64.2496 307.722 66.0503 277.536 69.2116C242.422 72.8931 208.967 80.9763 177.028 93.6214C175.938 94.0615 174.848 94.3817 173.711 94.7018C170.678 95.4621 166.982 97.9831 164.707 95.182C162.859 92.9011 166.176 90.4601 168.119 88.5393C185.795 70.8923 209.204 60.5681 233.893 51.8846C273.082 38.0791 313.93 35.0779 355.82 38.3192C404.25 42.0807 447.894 55.9663 486.135 81.5365C527.172 109.028 554.42 144.522 569.442 186.579C590.008 244.242 588.207 301.345 556.932 356.087C522.623 416.191 466.801 455.967 390.745 474.974C367.193 480.857 343.12 483.658 318.526 483.458L318.479 483.498Z" fill="#498779" fill-opacity="0.22"/>
<path d="M294.631 523.948C230.771 525.147 175.438 505.607 126.264 473C58.7091 428.206 18.536 369.307 4.5607 297.861C-8.41975 231.569 6.17135 169.912 50.087 113.61C78.6061 77.088 115.984 48.3975 161.037 26.8197C184.818 15.4314 210.021 6.84029 236.314 0.56675C245.173 -1.55107 255.358 2.48477 257.727 9.03802C260.522 16.7101 254.458 26.3003 245.268 28.4181C206.895 37.3689 171.743 51.9139 140.619 72.8523C83.0593 111.572 46.534 161.201 36.396 223.138C29.1478 267.572 37.2487 310.767 58.1406 352.045C85.5701 406.269 129.96 447.786 192.304 474.479C231.719 491.381 274.023 501.811 318.034 506.845C328.788 508.084 339.589 509.163 350.39 510.322C352.949 510.602 356.454 510.602 356.928 512.959C357.591 516.036 353.517 516.516 351.148 517.235C335.894 521.99 320.024 523.788 303.822 523.868C300.742 523.868 297.663 523.868 294.584 523.868L294.631 523.948Z" fill="#498779" fill-opacity="0.22"/>
<path d="M184.548 256.918V256.671L184.54 256.425C183.66 228.788 197.539 202.617 221.752 182.736C245.98 162.843 279.732 150.077 315.838 149.675L315.844 149.675C393.031 148.787 450.283 201.316 451.479 257.845L451.479 257.847C452.755 317.818 393.05 370.486 317.733 370.115C238.927 369.706 184.591 319.977 184.548 256.952V256.918Z" stroke="#498779" stroke-opacity="0.22" stroke-width="31"/>
<path d="M140.905 268.848C143.565 317.384 173.633 360.612 233.103 389.19C260.273 402.243 289.058 410.864 320.123 413.938C328.103 414.736 336.178 415.055 344.253 415.614C347.483 415.853 352.138 415.215 352.898 418.208C353.753 421.402 349.05 422.16 346.153 423.198C326.63 430.143 306.015 431.181 285.305 429.824C265.118 428.546 245.405 424.715 226.69 418.089C199.425 408.469 176.91 393.262 157.625 374.741C132.925 350.952 116.443 323.371 110.458 292.158C99.6754 236.437 113.688 185.785 158.433 142.597C193.678 108.59 239.088 91.1872 292.145 86.9562C307.345 85.7588 322.45 85.7588 337.603 87.036C344.538 87.5949 348.243 90.9078 350.855 95.6975C353.515 100.527 352.565 105.038 348.385 109.029C343.493 113.699 338.458 115.934 329.955 115.336C252.435 109.987 180.615 141.839 152.305 206.341C144.658 223.744 140.905 241.666 140.905 268.848Z" fill="#498779" fill-opacity="0.22"/>
</svg>
