<svg width="169" height="447" viewBox="0 0 169 447" fill="none" xmlns="http://www.w3.org/2000/svg">
<path d="M-205.746 259.253C-209.389 213.99 -199.169 172.822 -176.661 135.31C-172.7 128.731 -163.41 129.032 -159.941 135.973C-157.534 140.79 -156.934 145.595 -160.088 150.824C-174.711 175.081 -183.296 201.844 -184.893 231.181C-187.358 276.678 -175.228 316.758 -148.019 350.47C-121.37 383.473 -87.7701 401.585 -48.2736 403.115C-5.56916 404.778 32.5941 390.011 63.6805 356.042C87.0473 330.476 99.1319 298.716 101.494 262.097C102.88 240.683 99.8505 219.928 95.809 199.111C91.1046 174.896 83.2661 152.173 72.1679 130.856C71.7828 130.129 71.4858 129.393 71.1861 128.624C70.4553 126.567 68.3951 124.18 70.32 122.38C71.8877 120.917 73.8675 123.045 75.3873 124.254C89.3407 135.239 98.2497 150.783 106.028 167.344C118.391 193.63 122.924 221.897 122.937 251.368C122.942 285.44 115.247 316.944 98.6726 345.571C80.849 376.295 56.3679 398.009 26.3752 411.694C-14.7488 430.436 -56.7382 433.533 -98.6779 415.888C-144.724 396.535 -177.086 360.625 -195.369 309.016C-201.028 293.035 -204.457 276.455 -205.714 259.283L-205.746 259.253Z" fill="#498779" fill-opacity="0.22"/>
<path d="M-236.778 245.7C-241.302 201.241 -230.127 161.151 -209.015 124.361C-180.013 73.8196 -139.101 41.3047 -87.4902 26.1092C-39.604 12.0007 6.45564 17.4797 50.261 43.824C78.6788 60.9353 101.857 84.8237 120.256 114.608C129.967 130.33 137.707 147.257 143.809 165.121C145.868 171.14 143.489 178.553 138.818 180.705C133.349 183.239 125.969 179.74 123.891 173.49C115.135 147.403 102.46 123.99 85.3247 103.873C53.6375 66.6705 15.1488 44.9731 -30.8618 42.6219C-63.8693 40.9526 -95.0922 49.8965 -124.178 67.6174C-162.388 90.8859 -190.309 125.017 -206.331 170.544C-216.48 199.329 -221.716 229.636 -222.898 260.722C-223.192 268.318 -223.367 275.936 -223.601 283.559C-223.66 285.365 -223.46 287.811 -225.163 288.321C-227.382 289.018 -227.966 286.212 -228.629 284.615C-232.987 274.336 -235.212 263.401 -236.195 252.105C-236.371 249.957 -236.547 247.808 -236.722 245.66L-236.778 245.7Z" fill="#498779" fill-opacity="0.22"/>
<path d="M-46.5739 153.16L-46.8067 153.185L-46.8325 153.187L-46.5739 153.16ZM-46.5739 153.16L-46.3417 153.129M-46.5739 153.16L-46.3417 153.129M-46.3417 153.129C-8.52492 148.042 30.3152 183.147 34.9303 232.446L34.9309 232.452M-46.3417 153.129L34.9309 232.452M34.9309 232.452C39.7393 283.592 6.21474 325.324 -33.0812 330.207L-33.0829 330.207M34.9309 232.452L-33.0829 330.207M-33.0829 330.207C-74.7804 335.392 -114.74 299.665 -118.569 249.699M-33.0829 330.207L-118.569 249.699M-118.569 249.699C-122.564 197.358 -90.9863 157.808 -46.836 153.188L-118.569 249.699Z" stroke="#498779" stroke-opacity="0.22" stroke-width="31"/>
<path d="M-58.4271 119.013C-93.8781 124.569 -123.871 148.839 -141.441 192.505C-149.464 212.453 -154.146 233.191 -154.627 255.097C-154.758 260.725 -154.531 266.382 -154.48 272.058C-154.471 274.33 -153.737 277.528 -155.89 278.287C-158.183 279.127 -159.008 275.904 -159.935 273.962C-166.143 260.872 -168.081 246.57 -168.267 232.019C-168.482 217.838 -166.797 203.795 -163.004 190.234C-157.504 170.48 -147.634 153.614 -135.149 138.749C-119.109 119.705 -99.8177 106.104 -77.2634 99.5496C-37.0057 87.7802 0.948528 93.6944 35.1815 121.617C62.1383 143.612 77.4952 173.964 83.6266 210.655C85.3724 221.167 86.2344 231.705 86.1622 242.372C86.1481 247.253 83.9294 250.09 80.565 252.278C77.1741 254.502 73.8114 254.183 70.645 251.571C66.9402 248.514 65.0133 245.172 64.9672 239.195C64.4667 184.708 37.0037 137.034 -11.9262 122.201C-25.1281 118.193 -38.4883 116.941 -58.4271 119.013Z" fill="#498779" fill-opacity="0.22"/>
<path d="M8.03363 247.636C8.96863 266.315 2.0086 280.914 -10.8895 292.156C-41.6158 318.893 -87.1115 302.825 -96.3049 260.399C-97.6867 254.019 -93.8774 248.027 -88.0291 247.386C-82.4427 246.806 -77.0337 250.582 -75.2298 256.322C-70.3185 272.137 -59.4067 280.474 -44.3437 281.922C-21.3923 284.107 -4.2649 267.657 1.09094 245.41C1.75542 242.659 1.47009 237.721 4.89174 238.227C8.01401 238.697 7.48667 243.487 7.95573 246.684C7.98259 247.012 8.00946 247.341 8.03632 247.669L8.03363 247.636Z" fill="#498779" fill-opacity="0.22"/>
</svg>
