<svg width="19" height="18" viewBox="0 0 19 18" fill="none" xmlns="http://www.w3.org/2000/svg">
<path d="M1.9864 18C1.47836 18 0.970412 17.8055 0.583403 17.4185C-0.192515 16.6426 -0.192515 15.3884 0.583403 14.6124L14.6133 0.58196C15.3893 -0.193987 16.6434 -0.193987 17.4193 0.58196C18.1953 1.35791 18.1953 2.61211 17.4193 3.38805L3.38939 17.4185C3.00038 17.8055 2.49434 18 1.9864 18Z" fill="#498779"/>
<path d="M16.0149 18C15.5069 18 14.9989 17.8055 14.6119 17.4185L0.58194 3.38805C-0.19398 2.61211 -0.19398 1.35791 0.58194 0.58196C1.35786 -0.193987 2.61201 -0.193987 3.38793 0.58196L17.4179 14.6124C18.1938 15.3884 18.1938 16.6426 17.4179 17.4185C17.031 17.8055 16.523 18 16.0149 18Z" fill="#498779"/>
</svg>
