<svg width="73" height="73" viewBox="0 0 73 73" fill="none" xmlns="http://www.w3.org/2000/svg">
<g clip-path="url(#clip0_61_405)">
<path d="M39.6176 51.7082H11.2754L29.4128 33.5707L36.4999 39.0244L43.587 33.5677L48.4628 38.4435C49.4369 37.9275 50.4598 37.5098 51.5166 37.1964L46.0173 31.697L63.8749 17.9457V38.3857C64.9559 38.9232 65.9757 39.5759 66.9166 40.3323V16.729C66.9134 15.5199 66.4316 14.3613 65.5767 13.5064C64.7218 12.6514 63.5631 12.1697 62.3541 12.1665H10.6458C9.43669 12.1697 8.27806 12.6514 7.42312 13.5064C6.56818 14.3613 6.08646 15.5199 6.08325 16.729V50.1873C6.08325 51.3974 6.56394 52.5579 7.41958 53.4135C8.27521 54.2691 9.4357 54.7498 10.6458 54.7498H39.6176C39.572 54.248 39.5416 53.743 39.5416 53.229C39.5416 52.715 39.572 52.21 39.6176 51.7082ZM9.12492 49.5577V17.9487L26.9825 31.697L9.12492 49.5577ZM62.3541 15.2082C62.3815 15.2082 62.4027 15.2234 62.4301 15.2234L36.4999 35.1919L10.5697 15.2234C10.5971 15.2234 10.6184 15.2082 10.6458 15.2082H62.3541ZM56.2707 39.5415C52.6418 39.5455 49.1627 40.9889 46.5967 43.5549C44.0306 46.121 42.5873 49.6001 42.5833 53.229C42.605 53.7384 42.6557 54.2462 42.7353 54.7498C43.1017 58.0869 44.6843 61.1721 47.1811 63.4164C49.6778 65.6606 52.9136 66.9066 56.2707 66.9165H57.7916V63.8748H56.2707C53.7173 63.8677 51.2517 62.9417 49.3249 61.2662C47.398 59.5907 46.1386 57.2776 45.777 54.7498C45.6895 54.2473 45.6386 53.739 45.6249 53.229C45.6235 51.133 46.2413 49.0832 47.4006 47.337C48.5599 45.5908 50.2092 44.2259 52.1414 43.4136C54.0737 42.6013 56.2028 42.3779 58.2616 42.7713C60.3204 43.1647 62.2171 44.1574 63.7137 45.6248H60.8332V47.1852C59.5245 46.1791 57.9215 45.6309 56.2707 45.6248C55.0243 45.6213 53.7961 45.9242 52.6943 46.5069C51.5925 47.0896 50.6507 47.9342 49.952 48.9664C49.2533 49.9986 48.8191 51.1867 48.6875 52.4262C48.5559 53.6656 48.731 54.9184 49.1974 56.0743C49.6638 57.2302 50.4072 58.2537 51.3621 59.0548C52.317 59.8558 53.4542 60.4099 54.6736 60.6681C55.893 60.9264 57.1572 60.8809 58.3548 60.5358C59.5525 60.1906 60.647 59.5564 61.542 58.6888C62.0659 59.5284 62.8491 60.1744 63.7729 60.5291C64.6968 60.8838 65.7111 60.9278 66.6623 60.6545C67.6134 60.3812 68.4496 59.8055 69.0443 59.0145C69.6391 58.2235 69.9599 57.2603 69.9582 56.2707V53.229C69.9148 49.6123 68.4588 46.156 65.9013 43.5985C63.3437 41.0409 59.8874 39.5849 56.2707 39.5415ZM56.2707 57.7915C55.3303 57.7885 54.4138 57.4945 53.647 56.9499C52.8802 56.4054 52.3007 55.6368 51.9881 54.7498C51.808 54.2628 51.7133 53.7483 51.7082 53.229C51.7082 52.019 52.1889 50.8585 53.0446 50.0028C53.9002 49.1472 55.0607 48.6665 56.2707 48.6665C57.4808 48.6665 58.6413 49.1472 59.4969 50.0028C60.3526 50.8585 60.8332 52.019 60.8332 53.229C60.8282 53.7483 60.7335 54.2628 60.5534 54.7498C60.2408 55.6368 59.6613 56.4054 58.8945 56.9499C58.1277 57.4945 57.2112 57.7885 56.2707 57.7915ZM66.9166 56.2707C66.9166 56.674 66.7564 57.0609 66.4711 57.3461C66.1859 57.6313 65.7991 57.7915 65.3957 57.7915C64.9924 57.7915 64.6056 57.6313 64.3204 57.3461C64.0351 57.0609 63.8749 56.674 63.8749 56.2707V45.786C65.7859 47.798 66.8715 50.4545 66.9166 53.229V56.2707Z" fill="#498779"/>
</g>
<defs>
<clipPath id="clip0_61_405">
<rect width="73" height="73" fill="white"/>
</clipPath>
</defs>
</svg>
