<svg width="461" height="333" viewBox="0 0 461 333" fill="none" xmlns="http://www.w3.org/2000/svg">
<path d="M460.962 115.524C461.483 142.427 454.322 167.603 441.481 190.945C433.503 205.434 424.378 218.893 414.247 231.521C403.322 245.14 391.581 257.768 378.467 268.669C374.656 271.842 370.727 274.855 366.395 277.092C365.105 277.761 363.803 278.418 362.359 278.551C359.708 278.806 358.737 277.534 359.436 274.601C360.323 270.851 362.205 267.664 364.028 264.45C366.585 259.951 369.591 255.786 371.544 250.845C375.307 241.35 373.556 233.543 366.206 227.302C360.584 222.548 354.169 219.616 347.683 216.857C335.066 211.474 322.13 207.108 309.655 201.269C298.245 195.926 287.297 189.659 277.616 180.821C264.786 169.09 256.631 154.212 253.294 135.879C251.329 125.045 250.536 114.118 251.27 103.137C252.666 82.2998 259.377 63.7928 271.189 47.7097C284.433 29.658 301.287 17.5388 320.567 9.47712C331.492 4.91063 342.759 2.152 354.358 0.866416C374.017 -1.31639 392.836 1.65651 410.471 12.1018C426.319 21.4892 438.51 35.1887 447.363 52.7315C454.322 66.5247 458.358 81.4026 460.145 97.0974C460.808 102.936 461.163 108.828 460.927 115.511L460.962 115.524Z" fill="#498779"/>
<g clip-path="url(#clip0_209_2)">
<path d="M444.1 103.11C444.54 123.2 438.49 142 427.64 159.43C420.9 170.25 413.19 180.3 404.63 189.73C395.4 199.9 385.48 209.33 374.4 217.47C371.18 219.84 367.86 222.09 364.2 223.76C363.11 224.26 362.01 224.75 360.79 224.85C358.55 225.04 357.73 224.09 358.32 221.9C359.07 219.1 360.66 216.72 362.2 214.32C364.36 210.96 366.9 207.85 368.55 204.16C371.73 197.07 370.25 191.24 364.04 186.58C359.29 183.03 353.87 180.84 348.39 178.78C337.73 174.76 326.8 171.5 316.26 167.14C306.62 163.15 297.37 158.47 289.19 151.87C278.35 143.11 271.46 132 268.64 118.31C266.98 110.22 266.31 102.06 266.93 93.86C268.11 78.3 273.78 64.48 283.76 52.47C294.95 38.99 309.19 29.94 325.48 23.92C334.71 20.51 344.23 18.45 354.03 17.49C370.64 15.86 386.54 18.08 401.44 25.88C414.83 32.89 425.13 43.12 432.61 56.22C438.49 66.52 441.9 77.63 443.41 89.35C443.97 93.71 444.27 98.11 444.07 103.1L444.1 103.11Z" fill="#B9C598"/>
<path d="M91.3701 264.65C91.3701 270.66 91.3201 276.66 91.4001 282.67C91.4301 284.63 90.6701 285.82 88.9701 286.73C80.6601 291.14 71.8201 293.85 62.5301 295.07C54.2201 296.16 45.9301 296.01 37.9001 293.4C17.6501 286.81 4.90014 273.07 0.960137 252.17C-4.49986 223.2 13.9101 196.19 41.9501 190.14C59.6101 186.33 75.2801 191.1 89.1501 202.35C90.9401 203.8 91.0101 205.58 89.4101 207.26C86.6201 210.2 83.8201 213.13 81.0001 216.04C79.1601 217.94 78.1701 217.96 76.1501 216.23C70.6301 211.5 64.2601 208.68 57.0101 208.11C47.6501 207.36 39.4201 210.22 32.4701 216.51C19.3701 228.36 17.1701 248.22 27.5701 262.4C35.2701 272.9 45.8501 277.36 58.8301 276.03C62.9401 275.61 66.8601 274.51 70.7301 273.1C71.5901 272.78 71.9901 272.41 71.9701 271.41C71.9001 268.06 71.9001 264.7 71.9701 261.35C71.9901 260.26 71.6301 260.01 70.6101 260.03C67.3101 260.09 64.0001 260.07 60.7001 260.05C58.1701 260.04 57.2701 259.12 57.2701 256.59C57.2701 253.19 57.2701 249.78 57.2701 246.38C57.2701 243.78 58.1201 242.85 60.7201 242.7C61.9701 242.63 63.2201 242.68 64.4701 242.68C71.8801 242.68 79.2801 242.68 86.6901 242.68C87.0901 242.68 87.4901 242.67 87.8901 242.68C90.4501 242.81 91.3501 243.75 91.3601 246.35C91.3701 252.46 91.3601 258.56 91.3601 264.67L91.3701 264.65Z" fill="white"/>
<path d="M113.1 242.26C113.1 226.2 113.1 210.13 113.1 194.07C113.1 191.36 114.1 190.35 116.78 190.34C120.88 190.34 124.99 190.34 129.09 190.34C131.47 190.34 132.57 191.46 132.58 193.84C132.58 226.17 132.58 258.49 132.58 290.82C132.58 293.25 131.56 294.26 129.1 294.27C124.95 294.27 120.79 294.27 116.64 294.27C114.08 294.27 113.1 293.29 113.1 290.75C113.1 274.59 113.1 258.42 113.1 242.26Z" fill="white"/>
<path d="M364.97 153.11C351.28 153.09 339.25 148.5 328.7 139.86C326.85 138.34 327.23 135.21 329.42 134.23C330.94 133.55 332.4 133.48 333.87 134.69C340.69 140.3 348.45 143.94 357.2 145.29C370.77 147.38 383.17 144.39 394.13 136.13C404.86 128.04 411.34 117.19 413.03 103.89C414.86 89.5099 411.62 76.2099 402.4 64.7699C395.46 56.1699 386.31 51.2099 375.4 49.3999C369.02 48.3399 362.7 48.7899 356.33 49.5799C348.92 50.4999 341.86 52.5199 335.12 55.6799C334.89 55.7899 334.66 55.8699 334.42 55.9499C333.78 56.1399 333 56.7699 332.52 56.0699C332.13 55.4999 332.83 54.8899 333.24 54.4099C336.97 49.9999 341.91 47.4199 347.12 45.2499C355.39 41.7999 364.01 41.0499 372.85 41.8599C383.07 42.7999 392.28 46.2699 400.35 52.6599C409.01 59.5299 414.76 68.3999 417.93 78.9099C422.27 93.3199 421.89 107.59 415.29 121.27C408.05 136.29 396.27 146.23 380.22 150.98C375.25 152.45 370.17 153.15 364.98 153.1L364.97 153.11Z" fill="white"/>
<path d="M359.92 163.33C346.44 163.63 334.76 158.74 324.38 150.58C310.12 139.37 301.64 124.63 298.69 106.75C295.95 90.1601 299.03 74.7301 308.3 60.6401C314.32 51.5001 322.21 44.3201 331.72 38.9201C336.74 36.0701 342.06 33.9201 347.61 32.3501C349.48 31.8201 351.63 32.8301 352.13 34.4701C352.72 36.3901 351.44 38.7901 349.5 39.3201C341.4 41.5601 333.98 45.2001 327.41 50.4401C315.26 60.1301 307.55 72.5501 305.41 88.0501C303.88 99.1701 305.59 109.98 310 120.31C315.79 133.88 325.16 144.27 338.32 150.95C346.64 155.18 355.57 157.79 364.86 159.05C367.13 159.36 369.41 159.63 371.69 159.92C372.23 159.99 372.97 159.99 373.07 160.58C373.21 161.35 372.35 161.47 371.85 161.65C368.63 162.84 365.28 163.29 361.86 163.31C361.21 163.31 360.56 163.31 359.91 163.31L359.92 163.33Z" fill="white"/>
<path d="M333.49 96.5899C333.04 79.8299 347.75 66.0999 364.43 65.8799C382.02 65.6399 396.06 79.9299 396.36 96.7399C396.68 114.57 381.99 128.89 364.85 128.79C346.9 128.68 333.5 115.03 333.49 96.5999V96.5899Z" fill="white"/>
<path d="M327.54 99.45C328.1 111.61 334.43 122.44 346.95 129.6C352.67 132.87 358.73 135.03 365.27 135.8C366.95 136 368.65 136.08 370.35 136.22C371.03 136.28 372.01 136.12 372.17 136.87C372.35 137.67 371.36 137.86 370.75 138.12C366.64 139.86 362.3 140.12 357.94 139.78C353.69 139.46 349.54 138.5 345.6 136.84C339.86 134.43 335.12 130.62 331.06 125.98C325.86 120.02 322.39 113.11 321.13 105.29C318.86 91.33 321.81 78.64 331.23 67.82C338.65 59.3 348.21 54.94 359.38 53.88C362.58 53.58 365.76 53.58 368.95 53.9C370.41 54.04 371.19 54.87 371.74 56.07C372.3 57.28 372.1 58.41 371.22 59.41C370.19 60.58 369.13 61.14 367.34 60.99C351.02 59.65 335.9 67.63 329.94 83.79C328.33 88.15 327.54 92.64 327.54 99.45Z" fill="white"/>
<path d="M321.37 248.41C318.09 245.37 314.39 243.12 309.98 241.44C312.85 239.87 315.24 238.17 317.4 236.15C329.08 225.17 328.97 208.9 317.02 198.3C310.75 192.74 303.18 190.44 294.92 190.37C283.86 190.28 272.8 190.35 261.74 190.35C258.76 190.35 257.88 191.22 257.88 194.17C257.88 226.3 257.88 258.43 257.88 290.57C257.88 293.44 258.74 294.28 261.66 294.28C273.32 294.28 284.98 294.28 296.64 294.28C299.15 294.28 301.64 294.11 304.09 293.6C313 291.76 320.36 287.51 325.17 279.57C330.94 270.07 330.69 257.04 321.36 248.41H321.37ZM277.1 220.96C277.1 217.06 277.1 213.16 277.1 209.25C277.1 208.65 276.98 208.04 277.95 208.06C283.5 208.19 289.05 207.81 294.6 208.26C301.61 208.83 306.37 214.63 305.55 222.24C304.89 228.32 301.1 232.54 295.56 233.72C294.33 233.98 293.07 233.94 291.82 233.95C287.52 233.95 283.21 233.86 278.91 234C277.31 234.05 277.03 233.52 277.07 232.07C277.17 228.37 277.1 224.67 277.1 220.96ZM297.18 276.48C290.8 277.18 284.38 276.61 277.98 276.76C277.03 276.78 277.1 276.22 277.1 275.59C277.1 271.59 277.1 267.58 277.1 263.58C277.1 259.63 277.13 255.67 277.08 251.72C277.07 250.73 277.24 250.33 278.36 250.34C283.36 250.4 288.37 250.25 293.37 250.4C298.82 250.56 303.48 252.59 306.49 257.3C311.26 264.76 306.05 275.5 297.17 276.48H297.18Z" fill="white"/>
<path d="M244.57 290.72C244.43 290.24 244.2 289.79 243.99 289.34C229.03 256.67 214.06 224.01 199.15 191.33C198.31 189.49 197.17 188.82 195.24 188.81C193.03 188.8 192.27 190.23 191.5 191.89C184.56 206.96 177.6 222.02 170.64 237.08C162.53 254.64 154.42 272.19 146.31 289.75C144.97 292.65 146.02 294.27 149.23 294.28C153.18 294.28 157.14 294.23 161.09 294.3C163.52 294.34 165.01 293.23 165.96 291.07C168.09 286.27 170.32 281.53 172.42 276.72C172.89 275.63 173.45 275.28 174.64 275.28C188.35 275.33 202.07 275.33 215.78 275.28C216.95 275.28 217.52 275.59 218.01 276.7C220.1 281.51 222.34 286.26 224.48 291.05C225.46 293.24 226.93 294.47 229.47 294.3C231.36 294.17 233.27 294.27 235.17 294.27C237.47 294.27 239.78 294.31 242.08 294.25C244.08 294.19 245.14 292.63 244.56 290.72H244.57ZM180.43 258.71C182.1 254.95 183.72 251.31 185.34 247.67C188.37 240.87 191.4 234.07 194.44 227.28C194.59 226.94 194.6 226.4 195.09 226.39C195.5 226.38 195.54 226.87 195.68 227.17C200.4 237.53 205.11 247.9 209.82 258.27C209.86 258.36 209.85 258.46 209.88 258.72H180.43V258.71Z" fill="white"/>
<path d="M347.75 272.33C341.81 272.34 337.12 277.04 337.11 283C337.11 289.04 341.79 293.8 347.76 293.82C353.7 293.84 358.52 289.02 358.51 283.06C358.51 277.07 353.74 272.32 347.74 272.34L347.75 272.33ZM347.65 292.06C342.62 291.85 338.76 287.82 338.87 282.88C338.98 277.93 343.12 273.96 348.01 274.09C352.95 274.23 356.81 278.32 356.71 283.32C356.62 288.15 352.37 292.25 347.64 292.06H347.65Z" fill="white"/>
<path d="M339.59 96.41C339.67 82.97 350.97 72.02 364.93 72.07C378.65 72.12 390.08 82.64 390.14 97.28C390.21 111.58 378.98 122.65 364.74 122.59C349.95 122.53 339.85 111.24 339.59 96.41Z" fill="#B9C598"/>
<path d="M368.12 80.6399C373.79 80.8399 377.98 83.5899 380.97 88.2499C388.08 99.3499 381.8 114.25 368.7 116.18C366.73 116.47 365.04 115.02 365.03 113.03C365.03 111.13 366.34 109.41 368.13 108.96C373.06 107.74 375.92 104.29 376.83 99.2499C378.21 91.5699 373.78 85.3399 367.23 82.9199C366.42 82.6199 364.92 82.5799 365.18 81.4399C365.42 80.3999 366.85 80.7099 367.83 80.6399C367.93 80.6399 368.03 80.6399 368.13 80.6399H368.12Z" fill="white"/>
<path d="M350.31 284.9C349.98 284.35 350.1 284.09 350.6 283.7C352.13 282.51 352.57 281.17 352.08 279.66C351.59 278.17 350.21 277.25 348.34 277.2C347.19 277.17 346.04 277.23 344.89 277.18C343.94 277.14 343.52 277.5 343.55 278.48C343.59 279.98 343.56 281.48 343.56 282.97C343.56 284.37 343.56 285.77 343.56 287.17C343.56 287.22 343.56 287.27 343.56 287.32C343.56 288.11 343.55 288.79 344.7 288.8C345.8 288.8 345.93 288.24 345.87 287.39C345.83 286.79 345.81 286.19 345.88 285.59C345.93 285.13 345.5 284.41 346.43 284.31C347.11 284.24 347.67 284.31 347.99 285.09C348.41 286.1 348.98 287.05 349.44 288.04C349.98 289.2 351.05 288.94 351.75 288.63C352.53 288.27 351.7 287.62 351.5 287.15C351.16 286.37 350.75 285.63 350.31 284.9ZM347.97 282.46C347.77 282.46 347.57 282.46 347.22 282.46C345.82 282.84 345.89 281.87 345.83 280.77C345.76 279.52 346.17 279.04 347.4 279.24C347.59 279.27 347.8 279.24 347.99 279.24C349.07 279.32 350.05 279.69 349.99 280.94C349.94 282.08 349.01 282.44 347.96 282.45L347.97 282.46Z" fill="white"/>
<path d="M12.4601 332.88C11.3301 332.88 10.2801 332.69 9.33012 332.32C8.37012 331.94 7.54012 331.42 6.84012 330.74C6.14012 330.06 5.59012 329.26 5.20012 328.34C4.81012 327.42 4.62012 326.41 4.62012 325.32C4.62012 324.23 4.82012 323.22 5.20012 322.3C5.59012 321.38 6.14012 320.58 6.85012 319.9C7.56012 319.22 8.39012 318.69 9.35012 318.32C10.3101 317.94 11.3501 317.76 12.4801 317.76C13.6101 317.76 14.6501 317.94 15.5901 318.29C16.5301 318.64 17.3401 319.18 18.0001 319.91L17.0201 320.91C16.4001 320.29 15.7101 319.84 14.9601 319.57C14.2101 319.3 13.4001 319.17 12.5401 319.17C11.6201 319.17 10.7701 319.32 10.0001 319.63C9.23012 319.94 8.55012 320.37 7.98012 320.93C7.41012 321.49 6.96012 322.14 6.64012 322.89C6.32012 323.63 6.16012 324.45 6.16012 325.34C6.16012 326.23 6.32012 327.03 6.64012 327.78C6.96012 328.53 7.40012 329.19 7.98012 329.75C8.55012 330.31 9.23012 330.74 10.0001 331.05C10.7701 331.36 11.6101 331.51 12.5201 331.51C13.3701 331.51 14.1701 331.38 14.9301 331.13C15.6901 330.87 16.3901 330.44 17.0201 329.83L17.9101 331.02C17.2001 331.64 16.3701 332.11 15.4201 332.43C14.4701 332.75 13.4801 332.91 12.4401 332.91L12.4601 332.88ZM16.4101 330.8V325.32H17.9201V330.99L16.4101 330.8Z" fill="white"/>
<path d="M30.57 332.88C29.45 332.88 28.41 332.69 27.46 332.32C26.51 331.95 25.67 331.41 24.97 330.73C24.27 330.05 23.72 329.24 23.33 328.33C22.94 327.42 22.75 326.41 22.75 325.32C22.75 324.23 22.94 323.23 23.33 322.31C23.72 321.39 24.27 320.6 24.97 319.91C25.67 319.22 26.5 318.69 27.45 318.32C28.4 317.94 29.44 317.76 30.57 317.76C31.7 317.76 32.72 317.95 33.67 318.32C34.62 318.7 35.44 319.22 36.15 319.9C36.85 320.58 37.4 321.38 37.79 322.3C38.18 323.22 38.37 324.23 38.37 325.32C38.37 326.41 38.17 327.42 37.79 328.34C37.41 329.26 36.86 330.06 36.15 330.74C35.45 331.42 34.62 331.95 33.67 332.32C32.72 332.69 31.69 332.88 30.57 332.88ZM30.57 331.48C31.46 331.48 32.29 331.33 33.05 331.02C33.81 330.72 34.47 330.28 35.03 329.72C35.59 329.16 36.03 328.51 36.34 327.76C36.65 327.02 36.81 326.2 36.81 325.3C36.81 324.4 36.65 323.59 36.34 322.85C36.03 322.11 35.59 321.45 35.03 320.89C34.47 320.33 33.81 319.9 33.05 319.59C32.29 319.29 31.47 319.13 30.57 319.13C29.67 319.13 28.85 319.28 28.08 319.59C27.32 319.9 26.65 320.33 26.09 320.89C25.53 321.45 25.09 322.1 24.77 322.85C24.45 323.59 24.29 324.41 24.29 325.3C24.29 326.19 24.45 326.99 24.77 327.74C25.09 328.49 25.53 329.15 26.09 329.71C26.65 330.27 27.31 330.7 28.08 331.01C28.84 331.32 29.67 331.47 30.57 331.47V331.48Z" fill="white"/>
<path d="M43.5903 332.75V317.87H49.6503C51.2403 317.87 52.6303 318.19 53.8303 318.82C55.0303 319.45 55.9603 320.33 56.6203 321.44C57.2803 322.55 57.6203 323.85 57.6203 325.31C57.6203 326.77 57.2903 328.06 56.6203 329.18C55.9503 330.3 55.0203 331.17 53.8303 331.8C52.6303 332.43 51.2403 332.75 49.6503 332.75H43.5903ZM45.1603 331.39H49.5603C50.8803 331.39 52.0203 331.13 52.9903 330.61C53.9603 330.09 54.7103 329.38 55.2503 328.46C55.7903 327.55 56.0603 326.49 56.0603 325.3C56.0603 324.11 55.7903 323.04 55.2503 322.13C54.7103 321.22 53.9603 320.51 52.9903 319.99C52.0203 319.47 50.8803 319.21 49.5603 319.21H45.1603V331.37V331.39Z" fill="white"/>
<path d="M66.9499 332.88C65.8399 332.88 64.7799 332.7 63.7699 332.34C62.7599 331.98 61.9699 331.51 61.4199 330.95L62.0399 329.74C62.5599 330.25 63.2699 330.68 64.1499 331.03C65.0299 331.38 65.9699 331.55 66.9399 331.55C67.9099 331.55 68.6399 331.43 69.2199 331.2C69.8099 330.97 70.2399 330.65 70.5199 330.25C70.7999 329.85 70.9399 329.41 70.9399 328.93C70.9399 328.35 70.7699 327.88 70.4399 327.53C70.1099 327.18 69.6699 326.9 69.1299 326.69C68.5899 326.48 67.9999 326.3 67.3399 326.15C66.6899 325.99 66.0399 325.83 65.3799 325.65C64.7299 325.47 64.1299 325.23 63.5799 324.94C63.0299 324.64 62.5999 324.25 62.2599 323.76C61.9299 323.27 61.7599 322.63 61.7599 321.84C61.7599 321.1 61.9599 320.43 62.3399 319.81C62.7199 319.19 63.3299 318.7 64.1399 318.32C64.9499 317.94 65.9799 317.76 67.2399 317.76C68.0799 317.76 68.9099 317.88 69.7299 318.11C70.5499 318.34 71.2599 318.67 71.8499 319.08L71.3199 320.33C70.6799 319.91 70.0099 319.59 69.2899 319.4C68.5699 319.2 67.8799 319.1 67.2199 319.1C66.3299 319.1 65.5899 319.22 65.0099 319.46C64.4299 319.7 63.9999 320.02 63.7199 320.43C63.4399 320.83 63.3099 321.29 63.3099 321.8C63.3099 322.38 63.4799 322.85 63.8099 323.2C64.1399 323.55 64.5799 323.83 65.1299 324.03C65.6699 324.23 66.2699 324.41 66.9299 324.56C67.5799 324.72 68.2299 324.89 68.8699 325.07C69.5099 325.25 70.1099 325.49 70.6599 325.78C71.1999 326.07 71.6399 326.46 71.9799 326.94C72.3099 327.42 72.4799 328.05 72.4799 328.83C72.4799 329.55 72.2799 330.22 71.8899 330.84C71.4899 331.46 70.8899 331.95 70.0699 332.33C69.2499 332.71 68.2099 332.89 66.9399 332.89L66.9499 332.88Z" fill="white"/>
<path d="M77.6201 332.75V317.87H79.1901V332.75H77.6201Z" fill="white"/>
<path d="M85.73 332.75V317.87H87.03L97.29 330.79H96.61V317.87H98.16V332.75H96.86L86.62 319.83H87.3V332.75H85.73Z" fill="white"/>
<path d="M104.71 332.75V317.87H106.28V331.39H114.61V332.75H104.71Z" fill="white"/>
<path d="M125.13 332.88C124.01 332.88 122.97 332.69 122.02 332.32C121.07 331.95 120.23 331.41 119.53 330.73C118.83 330.05 118.28 329.24 117.89 328.33C117.5 327.42 117.31 326.41 117.31 325.32C117.31 324.23 117.5 323.23 117.89 322.31C118.28 321.39 118.83 320.6 119.53 319.91C120.23 319.22 121.06 318.69 122.01 318.32C122.96 317.94 124 317.76 125.13 317.76C126.26 317.76 127.28 317.95 128.23 318.32C129.18 318.7 130 319.22 130.71 319.9C131.41 320.58 131.96 321.38 132.35 322.3C132.74 323.22 132.93 324.23 132.93 325.32C132.93 326.41 132.73 327.42 132.35 328.34C131.97 329.26 131.42 330.06 130.71 330.74C130.01 331.42 129.18 331.95 128.23 332.32C127.28 332.69 126.25 332.88 125.13 332.88ZM125.13 331.48C126.02 331.48 126.85 331.33 127.61 331.02C128.37 330.72 129.03 330.28 129.59 329.72C130.15 329.16 130.59 328.51 130.9 327.76C131.21 327.02 131.37 326.2 131.37 325.3C131.37 324.4 131.21 323.59 130.9 322.85C130.59 322.11 130.15 321.45 129.59 320.89C129.03 320.33 128.37 319.9 127.61 319.59C126.85 319.29 126.03 319.13 125.13 319.13C124.23 319.13 123.41 319.28 122.64 319.59C121.88 319.9 121.21 320.33 120.65 320.89C120.09 321.45 119.65 322.1 119.33 322.85C119.01 323.59 118.85 324.41 118.85 325.3C118.85 326.19 119.01 326.99 119.33 327.74C119.65 328.49 120.09 329.15 120.65 329.71C121.21 330.27 121.87 330.7 122.64 331.01C123.4 331.32 124.23 331.47 125.13 331.47V331.48ZM123.24 316.18C122.99 316.18 122.77 316.1 122.59 315.93C122.41 315.76 122.32 315.54 122.32 315.27C122.32 315 122.41 314.78 122.59 314.61C122.77 314.44 122.98 314.35 123.24 314.35C123.48 314.35 123.69 314.44 123.88 314.61C124.07 314.78 124.16 315 124.16 315.27C124.16 315.54 124.07 315.76 123.88 315.93C123.69 316.1 123.48 316.18 123.24 316.18ZM127.02 316.18C126.78 316.18 126.57 316.1 126.38 315.93C126.2 315.76 126.1 315.54 126.1 315.27C126.1 315 126.19 314.78 126.38 314.61C126.56 314.44 126.78 314.35 127.02 314.35C127.27 314.35 127.49 314.44 127.67 314.61C127.85 314.78 127.94 315 127.94 315.27C127.94 315.54 127.85 315.76 127.67 315.93C127.49 316.1 127.28 316.18 127.02 316.18Z" fill="white"/>
<path d="M142.26 332.88C141.15 332.88 140.09 332.7 139.08 332.34C138.07 331.98 137.28 331.51 136.73 330.95L137.35 329.74C137.87 330.25 138.58 330.68 139.46 331.03C140.34 331.38 141.28 331.55 142.25 331.55C143.22 331.55 143.95 331.43 144.53 331.2C145.12 330.97 145.55 330.65 145.83 330.25C146.11 329.85 146.25 329.41 146.25 328.93C146.25 328.35 146.08 327.88 145.75 327.53C145.42 327.18 144.98 326.9 144.44 326.69C143.9 326.48 143.31 326.3 142.65 326.15C142 325.99 141.35 325.83 140.69 325.65C140.04 325.47 139.44 325.23 138.89 324.94C138.34 324.64 137.91 324.25 137.57 323.76C137.24 323.27 137.07 322.63 137.07 321.84C137.07 321.1 137.27 320.43 137.65 319.81C138.03 319.19 138.64 318.7 139.45 318.32C140.26 317.94 141.29 317.76 142.55 317.76C143.39 317.76 144.22 317.88 145.04 318.11C145.86 318.34 146.57 318.67 147.16 319.08L146.63 320.33C145.99 319.91 145.32 319.59 144.6 319.4C143.88 319.2 143.19 319.1 142.53 319.1C141.64 319.1 140.9 319.22 140.32 319.46C139.74 319.7 139.31 320.02 139.03 320.43C138.75 320.83 138.62 321.29 138.62 321.8C138.62 322.38 138.79 322.85 139.12 323.2C139.45 323.55 139.89 323.83 140.44 324.03C140.98 324.23 141.58 324.41 142.24 324.56C142.89 324.72 143.54 324.89 144.18 325.07C144.82 325.25 145.42 325.49 145.97 325.78C146.51 326.07 146.95 326.46 147.29 326.94C147.62 327.42 147.79 328.05 147.79 328.83C147.79 329.55 147.59 330.22 147.2 330.84C146.8 331.46 146.2 331.95 145.38 332.33C144.56 332.71 143.52 332.89 142.25 332.89L142.26 332.88Z" fill="white"/>
<path d="M154.5 331.39H163.45V332.75H152.93V317.87H163.13V319.23H154.5V331.39ZM154.33 324.53H162.19V325.87H154.33V324.53Z" fill="white"/>
<path d="M168.85 332.75V317.87H170.15L180.41 330.79H179.73V317.87H181.28V332.75H179.98L169.74 319.83H170.42V332.75H168.85Z" fill="white"/>
<path d="M195.09 332.75V317.87H196.39L206.65 330.79H205.97V317.87H207.52V332.75H206.22L195.98 319.83H196.66V332.75H195.09Z" fill="white"/>
<path d="M220.57 332.88C219.45 332.88 218.41 332.69 217.46 332.32C216.5 331.94 215.67 331.41 214.97 330.73C214.27 330.04 213.72 329.24 213.33 328.33C212.94 327.42 212.75 326.41 212.75 325.32C212.75 324.23 212.95 323.23 213.33 322.31C213.71 321.39 214.26 320.6 214.97 319.91C215.67 319.22 216.5 318.69 217.45 318.32C218.4 317.94 219.44 317.76 220.57 317.76C221.7 317.76 222.72 317.95 223.67 318.32C224.62 318.7 225.44 319.22 226.15 319.9C226.85 320.58 227.4 321.38 227.79 322.3C228.18 323.22 228.37 324.23 228.37 325.32C228.37 326.41 228.18 327.42 227.79 328.34C227.4 329.26 226.85 330.06 226.15 330.74C225.45 331.42 224.62 331.95 223.67 332.32C222.72 332.69 221.69 332.88 220.57 332.88ZM220.57 331.48C221.46 331.48 222.29 331.33 223.05 331.02C223.81 330.72 224.47 330.28 225.03 329.72C225.59 329.16 226.03 328.51 226.34 327.76C226.65 327.01 226.81 326.2 226.81 325.3C226.81 324.4 226.65 323.59 226.34 322.85C226.03 322.11 225.59 321.45 225.03 320.89C224.47 320.33 223.81 319.9 223.05 319.59C222.29 319.29 221.47 319.13 220.57 319.13C219.67 319.13 218.85 319.28 218.08 319.59C217.31 319.9 216.65 320.33 216.09 320.89C215.53 321.45 215.09 322.1 214.77 322.85C214.45 323.59 214.29 324.41 214.29 325.3C214.29 326.19 214.45 326.99 214.77 327.74C215.09 328.49 215.53 329.15 216.09 329.71C216.65 330.27 217.31 330.7 218.08 331.01C218.84 331.32 219.67 331.47 220.57 331.47V331.48Z" fill="white"/>
<path d="M233.6 332.75V317.87H239.17C240.43 317.87 241.51 318.07 242.42 318.48C243.33 318.88 244.02 319.47 244.51 320.22C245 320.98 245.24 321.89 245.24 322.97C245.24 324.05 245 324.92 244.51 325.68C244.02 326.44 243.32 327.02 242.42 327.42C241.51 327.82 240.43 328.03 239.17 328.03H234.47L235.17 327.31V332.75H233.6ZM235.17 327.44L234.47 326.7H239.12C240.61 326.7 241.74 326.37 242.51 325.72C243.28 325.07 243.67 324.15 243.67 322.98C243.67 321.81 243.28 320.87 242.51 320.22C241.74 319.57 240.61 319.24 239.12 319.24H234.47L235.17 318.5V327.45V327.44ZM243.76 332.75L239.93 327.35H241.63L245.48 332.75H243.76Z" fill="white"/>
<path d="M250.66 332.75V317.87H256.72C258.31 317.87 259.7 318.19 260.9 318.82C262.1 319.45 263.03 320.33 263.69 321.44C264.36 322.56 264.69 323.85 264.69 325.31C264.69 326.77 264.36 328.06 263.69 329.18C263.02 330.3 262.09 331.17 260.9 331.8C259.7 332.43 258.31 332.75 256.72 332.75H250.66ZM252.23 331.39H256.63C257.95 331.39 259.09 331.13 260.06 330.61C261.03 330.09 261.78 329.38 262.32 328.46C262.86 327.55 263.13 326.49 263.13 325.3C263.13 324.11 262.86 323.04 262.32 322.13C261.78 321.22 261.03 320.51 260.06 319.99C259.09 319.47 257.95 319.21 256.63 319.21H252.23V331.37V331.39Z" fill="white"/>
<path d="M269.92 332.75V317.87H271.49V332.75H269.92Z" fill="white"/>
<path d="M284.5 332.88C283.38 332.88 282.35 332.69 281.4 332.32C280.45 331.95 279.63 331.42 278.94 330.74C278.25 330.06 277.7 329.26 277.31 328.34C276.92 327.42 276.73 326.41 276.73 325.32C276.73 324.23 276.92 323.22 277.31 322.3C277.7 321.38 278.25 320.58 278.95 319.9C279.65 319.22 280.48 318.69 281.43 318.32C282.38 317.94 283.41 317.76 284.53 317.76C285.65 317.76 286.62 317.94 287.57 318.3C288.52 318.66 289.32 319.2 289.97 319.93L288.97 320.93C288.36 320.31 287.69 319.86 286.95 319.58C286.21 319.3 285.42 319.17 284.57 319.17C283.68 319.17 282.85 319.32 282.08 319.63C281.31 319.94 280.65 320.37 280.08 320.93C279.51 321.49 279.07 322.14 278.75 322.89C278.43 323.63 278.27 324.45 278.27 325.34C278.27 326.23 278.43 327.05 278.75 327.8C279.07 328.54 279.51 329.2 280.08 329.76C280.65 330.32 281.31 330.75 282.08 331.06C282.84 331.37 283.67 331.52 284.57 331.52C285.47 331.52 286.21 331.38 286.95 331.1C287.69 330.82 288.36 330.36 288.97 329.74L289.97 330.74C289.32 331.46 288.52 332.01 287.57 332.38C286.62 332.75 285.6 332.93 284.51 332.93L284.5 332.88Z" fill="white"/>
<path d="M299.9 332.75L306.7 317.87H308.25L315.05 332.75H313.39L307.14 318.79H307.78L301.53 332.75H299.89H299.9ZM302.58 328.78L303.05 327.5H311.7L312.17 328.78H302.59H302.58Z" fill="white"/>
<path d="M319.22 332.75V317.87H325.64C327.3 317.87 328.58 318.2 329.5 318.87C330.41 319.54 330.87 320.48 330.87 321.7C330.87 322.51 330.68 323.19 330.31 323.74C329.93 324.29 329.43 324.71 328.78 324.99C328.13 325.27 327.43 325.41 326.66 325.41L327.02 324.9C327.97 324.9 328.79 325.05 329.48 325.34C330.17 325.63 330.7 326.06 331.08 326.64C331.46 327.21 331.65 327.93 331.65 328.78C331.65 330.04 331.19 331.02 330.26 331.71C329.33 332.4 327.93 332.75 326.06 332.75H319.22ZM320.79 331.45H326.04C327.34 331.45 328.34 331.23 329.04 330.78C329.73 330.33 330.08 329.62 330.08 328.64C330.08 327.66 329.73 326.97 329.04 326.53C328.35 326.08 327.35 325.86 326.04 325.86H320.62V324.56H325.53C326.72 324.56 327.64 324.33 328.3 323.88C328.96 323.43 329.29 322.75 329.29 321.86C329.29 320.97 328.96 320.28 328.3 319.83C327.64 319.38 326.72 319.16 325.53 319.16H320.79V331.44V331.45Z" fill="white"/>
</g>
<defs>
<clipPath id="clip0_209_2">
<rect width="444.16" height="315.88" fill="white" transform="translate(0 17)"/>
</clipPath>
</defs>
</svg>
