<svg width="37" height="35" viewBox="0 0 37 35" fill="none" xmlns="http://www.w3.org/2000/svg">
<g clip-path="url(#clip0_12_572)">
<path d="M34.2541 0H7.61426C7.65603 0.11121 7.6791 0.232016 7.6791 0.357621V0.37879C7.6791 0.955726 7.19427 1.42427 6.59728 1.42427H5.01427C4.4167 1.42427 3.93245 0.955726 3.93245 0.37879V0.357621C3.93245 0.232016 3.95553 0.11121 3.99729 0H2.25248C1.21797 0 0.37915 0.810927 0.37915 1.8104V33.1896C0.37915 34.1894 1.21797 35 2.25248 35H34.7223C35.7568 35 36.5956 34.1894 36.5956 33.1896V2.26286L34.2541 0ZM3.85243 33.0727C3.85243 33.2731 3.68449 33.4349 3.4777 33.4349H2.35382C2.14704 33.4349 1.9791 33.2731 1.9791 33.0727V31.9866C1.9791 31.7868 2.14704 31.6245 2.35382 31.6245H3.4777C3.68449 31.6245 3.85243 31.7868 3.85243 31.9866V33.0727ZM9.78258 1.56512H27.3443V9.7873H9.78258V1.56512ZM31.8168 32.0284C31.8168 32.6177 31.3223 33.0953 30.7125 33.0953H6.41503C5.80519 33.0953 5.31072 32.6177 5.31072 32.0284V14.0979C5.31072 13.5086 5.80519 13.0307 6.41503 13.0307H30.7125C31.3223 13.0307 31.8168 13.5086 31.8168 14.0979V32.0284ZM34.9954 33.0727C34.9954 33.2731 34.8274 33.4349 34.6206 33.4349H33.4968C33.29 33.4349 33.122 33.2731 33.122 33.0727V31.9866C33.122 31.7868 33.29 31.6245 33.4968 31.6245H34.6206C34.8274 31.6245 34.9954 31.7868 34.9954 31.9866V33.0727Z" fill="white"/>
<path d="M25.471 3.11157H23.2075V8.24077H25.471V3.11157Z" fill="white"/>
<path d="M28.2421 17.7828H8.88501V18.9144H28.2421V17.7828Z" fill="white"/>
<path d="M28.2421 22.6106H8.88501V23.7422H28.2421V22.6106Z" fill="white"/>
<path d="M28.2421 27.438H8.88501V28.5696H28.2421V27.438Z" fill="white"/>
</g>
<defs>
<clipPath id="clip0_12_572">
<rect width="36.2165" height="35" fill="white" transform="translate(0.37915)"/>
</clipPath>
</defs>
</svg>
