<svg width="179" height="208" viewBox="0 0 179 208" fill="none" xmlns="http://www.w3.org/2000/svg">
<path d="M178.1 86.11C178.54 106.2 172.49 125 161.64 142.43C154.9 153.25 147.19 163.3 138.63 172.73C129.4 182.9 119.48 192.33 108.4 200.47C105.18 202.84 101.86 205.09 98.2 206.76C97.11 207.26 96.01 207.75 94.79 207.85C92.55 208.04 91.73 207.09 92.32 204.9C93.07 202.1 94.66 199.72 96.2 197.32C98.36 193.96 100.9 190.85 102.55 187.16C105.73 180.07 104.25 174.24 98.04 169.58C93.29 166.03 87.87 163.84 82.39 161.78C71.73 157.76 60.8 154.5 50.26 150.14C40.62 146.15 31.37 141.47 23.19 134.87C12.35 126.11 5.46 115 2.64 101.31C0.980004 93.22 0.309982 85.06 0.929982 76.86C2.10998 61.3 7.78 47.48 17.76 35.47C28.95 21.99 43.19 12.94 59.48 6.92003C68.71 3.51003 78.23 1.45003 88.03 0.49003C104.64 -1.13997 120.54 1.08003 135.44 8.88003C148.83 15.89 159.13 26.12 166.61 39.22C172.49 49.52 175.9 60.63 177.41 72.35C177.97 76.71 178.27 81.11 178.07 86.1L178.1 86.11Z" fill="#B9C598"/>
<path d="M98.97 136.11C85.28 136.09 73.25 131.5 62.7 122.86C60.85 121.34 61.23 118.21 63.42 117.23C64.94 116.55 66.4 116.48 67.87 117.69C74.69 123.3 82.45 126.94 91.2 128.29C104.77 130.38 117.17 127.39 128.13 119.13C138.86 111.04 145.34 100.19 147.03 86.8899C148.86 72.5099 145.62 59.2099 136.4 47.7699C129.46 39.1699 120.31 34.2099 109.4 32.3999C103.02 31.3399 96.7 31.7899 90.33 32.5799C82.92 33.4999 75.86 35.5199 69.12 38.6799C68.89 38.7899 68.66 38.8699 68.42 38.9499C67.78 39.1399 67 39.7699 66.52 39.0699C66.13 38.4999 66.83 37.8899 67.24 37.4099C70.97 32.9999 75.91 30.4199 81.12 28.2499C89.39 24.7999 98.01 24.0499 106.85 24.8599C117.07 25.7999 126.28 29.2699 134.35 35.6599C143.01 42.5299 148.76 51.3999 151.93 61.9099C156.27 76.3199 155.89 90.5899 149.29 104.27C142.05 119.29 130.27 129.23 114.22 133.98C109.25 135.45 104.17 136.15 98.98 136.1L98.97 136.11Z" fill="white"/>
<path d="M93.92 146.33C80.44 146.63 68.76 141.74 58.38 133.58C44.12 122.37 35.64 107.63 32.69 89.7501C29.95 73.1601 33.03 57.7301 42.3 43.6401C48.32 34.5001 56.21 27.3201 65.72 21.9201C70.74 19.0701 76.06 16.9201 81.61 15.3501C83.48 14.8201 85.63 15.8301 86.13 17.4701C86.72 19.3901 85.44 21.7901 83.5 22.3201C75.4 24.5601 67.98 28.2001 61.41 33.4401C49.26 43.1301 41.55 55.5501 39.41 71.0501C37.88 82.1701 39.59 92.9801 44 103.31C49.79 116.88 59.16 127.27 72.32 133.95C80.64 138.18 89.57 140.79 98.86 142.05C101.13 142.36 103.41 142.63 105.69 142.92C106.23 142.99 106.97 142.99 107.07 143.58C107.21 144.35 106.35 144.47 105.85 144.65C102.63 145.84 99.28 146.29 95.86 146.31C95.21 146.31 94.56 146.31 93.91 146.31L93.92 146.33Z" fill="white"/>
<path d="M67.49 79.5899C67.04 62.8299 81.75 49.0999 98.43 48.8799C116.02 48.6399 130.06 62.9299 130.36 79.7399C130.68 97.5699 115.99 111.89 98.8501 111.79C80.9001 111.68 67.5 98.0299 67.49 79.5999V79.5899Z" fill="white"/>
<path d="M61.5401 82.45C62.1001 94.61 68.4301 105.44 80.9501 112.6C86.6701 115.87 92.7301 118.03 99.2701 118.8C100.95 119 102.65 119.08 104.35 119.22C105.03 119.28 106.01 119.12 106.17 119.87C106.35 120.67 105.36 120.86 104.75 121.12C100.64 122.86 96.3001 123.12 91.9401 122.78C87.6901 122.46 83.5401 121.5 79.6001 119.84C73.8601 117.43 69.1201 113.62 65.0601 108.98C59.8601 103.02 56.3901 96.11 55.1301 88.29C52.8601 74.33 55.8101 61.64 65.2301 50.82C72.6501 42.3 82.2101 37.94 93.3801 36.88C96.5801 36.58 99.7601 36.58 102.95 36.9C104.41 37.04 105.19 37.87 105.74 39.07C106.3 40.28 106.1 41.41 105.22 42.41C104.19 43.58 103.13 44.14 101.34 43.99C85.0201 42.65 69.9001 50.63 63.9401 66.79C62.3301 71.15 61.5401 75.64 61.5401 82.45Z" fill="white"/>
<path d="M73.5901 79.41C73.6701 65.97 84.9701 55.02 98.9301 55.07C112.65 55.12 124.08 65.64 124.14 80.28C124.21 94.58 112.98 105.65 98.7401 105.59C83.9501 105.53 73.8501 94.24 73.5901 79.41Z" fill="#B9C598"/>
<path d="M102.12 63.6399C107.79 63.8399 111.98 66.5899 114.97 71.2499C122.08 82.3499 115.8 97.2499 102.7 99.1799C100.73 99.4699 99.04 98.0199 99.03 96.0299C99.03 94.1299 100.34 92.4099 102.13 91.9599C107.06 90.7399 109.92 87.2899 110.83 82.2499C112.21 74.5699 107.78 68.3399 101.23 65.9199C100.42 65.6199 98.92 65.5799 99.18 64.4399C99.42 63.3999 100.85 63.7099 101.83 63.6399C101.93 63.6399 102.03 63.6399 102.13 63.6399H102.12Z" fill="white"/>
</svg>
