<svg width="43" height="55" viewBox="0 0 43 55" fill="none" xmlns="http://www.w3.org/2000/svg">
<path d="M42.4222 22.7379C42.5275 28.0421 41.0807 33.0057 38.4861 37.6075C36.8743 40.4642 35.0305 43.1176 32.9835 45.6073C30.7763 48.2924 28.4041 50.7821 25.7545 52.9312C24.9844 53.5569 24.1905 54.151 23.3153 54.5919C23.0546 54.7239 22.7916 54.8533 22.4998 54.8797C21.9641 54.9298 21.7681 54.679 21.9091 54.1008C22.0885 53.3616 22.4687 52.7332 22.837 52.0996C23.3535 51.2125 23.9609 50.3914 24.3555 49.4171C25.116 47.5452 24.762 46.006 23.277 44.7757C22.1411 43.8384 20.845 43.2602 19.5345 42.7163C16.9853 41.6549 14.3716 40.7942 11.8511 39.6431C9.5458 38.5897 7.33379 37.3541 5.37766 35.6115C2.78542 33.2987 1.13778 30.3655 0.463411 26.751C0.0664453 24.6151 -0.0937813 22.4607 0.0544832 20.2958C0.336664 16.1876 1.69257 12.5389 4.07915 9.368C6.75508 5.80902 10.1604 3.41964 14.0559 1.83025C16.2631 0.929939 18.5397 0.386059 20.8832 0.1326C24.8553 -0.297751 28.6576 0.288372 32.2207 2.34772C35.4227 4.1985 37.8858 6.89942 39.6746 10.3581C41.0807 13.0775 41.8961 16.0107 42.2572 19.105C42.3912 20.2562 42.4629 21.4179 42.4151 22.7353L42.4222 22.7379Z" fill="#B9C598"/>
<path d="M23.4993 35.9389C20.2255 35.9336 17.3487 34.7217 14.8259 32.4406C14.3835 32.0393 14.4743 31.2129 14.998 30.9542C15.3615 30.7746 15.7107 30.7561 16.0622 31.0756C17.6931 32.5568 19.5488 33.5178 21.6412 33.8742C24.8863 34.426 27.8516 33.6366 30.4725 31.4558C33.0385 29.3199 34.5881 26.4553 34.9922 22.9438C35.4298 19.1472 34.655 15.6358 32.4502 12.6154C30.7906 10.3448 28.6025 9.03527 25.9935 8.55739C24.4678 8.27753 22.9565 8.39634 21.4332 8.60491C19.6612 8.84781 17.9729 9.38113 16.3611 10.2154C16.3061 10.2445 16.2511 10.2656 16.1937 10.2867C16.0407 10.3369 15.8541 10.5032 15.7393 10.3184C15.6461 10.1679 15.8135 10.0069 15.9115 9.88013C16.8035 8.7158 17.9848 8.03463 19.2307 7.46171C21.2084 6.55084 23.2698 6.35283 25.3837 6.56668C27.8277 6.81486 30.0301 7.73101 31.96 9.41809C34.0309 11.2319 35.4059 13.5738 36.164 16.3486C37.2018 20.1531 37.111 23.9207 35.5327 27.5325C33.8013 31.498 30.9843 34.1224 27.1461 35.3765C25.9576 35.7646 24.7428 35.9494 23.5017 35.9362L23.4993 35.9389Z" fill="white"/>
<path d="M22.292 38.6373C19.0684 38.7165 16.2753 37.4254 13.7931 35.271C10.383 32.3114 8.3551 28.4197 7.64965 23.6991C6.99442 19.319 7.73095 15.2451 9.94775 11.5251C11.3873 9.11197 13.2741 7.21631 15.5483 5.79061C16.7488 5.03815 18.021 4.47051 19.3482 4.056C19.7954 3.91607 20.3095 4.18273 20.4291 4.61572C20.5702 5.12264 20.2641 5.75629 19.8002 5.89622C17.8632 6.48762 16.0888 7.44865 14.5176 8.83211C11.6121 11.3905 9.7684 14.6696 9.25665 18.7619C8.89077 21.6978 9.29969 24.5518 10.3543 27.2792C11.7389 30.8619 13.9796 33.6051 17.1266 35.3687C19.1162 36.4855 21.2517 37.1746 23.4733 37.5073C24.0161 37.5891 24.5614 37.6604 25.1066 37.737C25.2357 37.7554 25.4127 37.7555 25.4366 37.9112C25.4701 38.1145 25.2644 38.1462 25.1449 38.1937C24.3748 38.5079 23.5737 38.6267 22.7559 38.632C22.6004 38.632 22.445 38.632 22.2896 38.632L22.292 38.6373Z" fill="white"/>
<path d="M15.9716 21.0165C15.864 16.5916 19.3817 12.9666 23.3705 12.9085C27.5769 12.8451 30.9344 16.618 31.0061 21.0561C31.0827 25.7636 27.5698 29.5444 23.471 29.518C19.1785 29.4889 15.974 25.8851 15.9716 21.0192V21.0165Z" fill="white"/>
<path d="M14.5487 21.7715C14.6827 24.982 16.1964 27.8413 19.1904 29.7317C20.5582 30.5951 22.0074 31.1653 23.5714 31.3686C23.9731 31.4214 24.3796 31.4426 24.7862 31.4795C24.9488 31.4954 25.1831 31.4531 25.2214 31.6511C25.2644 31.8624 25.0277 31.9125 24.8818 31.9812C23.899 32.4406 22.8611 32.5092 21.8185 32.4194C20.8022 32.3349 19.8097 32.0815 18.8675 31.6432C17.4949 31.0069 16.3614 30.001 15.3905 28.776C14.147 27.2024 13.3172 25.378 13.0159 23.3134C12.473 19.6277 13.1785 16.2773 15.4312 13.4206C17.2056 11.1711 19.4917 10.02 22.1628 9.74016C22.9281 9.66095 23.6885 9.66095 24.4514 9.74544C24.8005 9.7824 24.987 10.0015 25.1186 10.3184C25.2525 10.6378 25.2047 10.9362 24.9942 11.2002C24.7479 11.5091 24.4944 11.6569 24.0664 11.6173C20.1637 11.2635 16.5479 13.3704 15.1227 17.637C14.7377 18.7881 14.5487 19.9736 14.5487 21.7715Z" fill="white"/>
<path d="M17.4302 20.969C17.4493 17.4206 20.1515 14.5296 23.4899 14.5428C26.7708 14.556 29.5042 17.3335 29.5185 21.1987C29.5353 24.9742 26.8497 27.8969 23.4444 27.881C19.9076 27.8652 17.4924 24.8844 17.4302 20.969Z" fill="#B9C598"/>
<path d="M24.2526 16.8054C25.6085 16.8582 26.6105 17.5843 27.3255 18.8146C29.0258 21.7452 27.524 25.6791 24.3913 26.1887C23.9202 26.2652 23.5161 25.8824 23.5137 25.357C23.5137 24.8554 23.8269 24.4013 24.255 24.2825C25.4339 23.9603 26.1179 23.0495 26.3355 21.7188C26.6655 19.6912 25.6061 18.0463 24.0398 17.4074C23.8461 17.3282 23.4874 17.3176 23.5495 17.0166C23.6069 16.7421 23.9489 16.8239 24.1833 16.8054C24.2072 16.8054 24.2311 16.8054 24.255 16.8054H24.2526Z" fill="white"/>
</svg>
